<svg xmlns="http://www.w3.org/2000/svg" xmlns:xlink="http://www.w3.org/1999/xlink" viewBox="0 0 1000 1000" version="1.1">
<path style=" stroke:none;fill-rule:nonzero;fill:rgb(25.882353%,52.156863%,95.686275%);fill-opacity:1;" d="M 940 510.417969 C 940 477.917969 937.082031 446.667969 931.667969 416.667969 L 500 416.667969 L 500 594.167969 L 746.667969 594.167969 C 735.832031 651.25 703.332031 699.582031 654.582031 732.082031 L 654.582031 847.5 L 803.332031 847.5 C 890 767.5 940 650 940 510.417969 Z M 940 510.417969 "/>
<path style=" stroke:none;fill-rule:nonzero;fill:rgb(20.392157%,65.882353%,32.54902%);fill-opacity:1;" d="M 500 958.332031 C 623.75 958.332031 727.5 917.5 803.332031 847.5 L 654.582031 732.082031 C 613.75 759.582031 561.667969 776.25 500 776.25 C 380.832031 776.25 279.582031 695.832031 243.332031 587.5 L 90.832031 587.5 L 90.832031 705.832031 C 166.25 855.417969 320.832031 958.332031 500 958.332031 Z M 500 958.332031 "/>
<path style=" stroke:none;fill-rule:nonzero;fill:rgb(98.431373%,73.72549%,1.960784%);fill-opacity:1;" d="M 243.332031 587.082031 C 234.167969 559.582031 228.75 530.417969 228.75 500 C 228.75 469.582031 234.167969 440.417969 243.332031 412.917969 L 243.332031 294.582031 L 90.832031 294.582031 C 59.582031 356.25 41.667969 425.832031 41.667969 500 C 41.667969 574.167969 59.582031 643.75 90.832031 705.417969 L 209.582031 612.917969 Z M 243.332031 587.082031 "/>
<path style=" stroke:none;fill-rule:nonzero;fill:rgb(91.764706%,26.27451%,20.784314%);fill-opacity:1;" d="M 500 224.167969 C 567.5 224.167969 627.5 247.5 675.417969 292.5 L 806.667969 161.25 C 727.082031 87.082031 623.75 41.667969 500 41.667969 C 320.832031 41.667969 166.25 144.582031 90.832031 294.582031 L 243.332031 412.917969 C 279.582031 304.582031 380.832031 224.167969 500 224.167969 Z M 500 224.167969 "/>
</svg>
