<svg xmlns="http://www.w3.org/2000/svg" xmlns:xlink="http://www.w3.org/1999/xlink" width="57" height="60" viewBox="0 0 53 60" version="1.1">
  <defs>
    <path id="a" d="M0 0.197h53.214v59.267H0z"/>
  </defs>
  <g fill="none" fill-rule="evenodd">
    <g transform="translate(0 .34)">
      <mask id="b" fill="#fff">
        <use xlink:href="#a"/>
      </mask>
      <path fill="#00AD64" d="m39.265 30.609 3.57 3.607 -2.986 3.014h-0.005c-1.215 -1.225 -2.294 -2.35 -3.523 -3.564a1.4 1.4 0 0 0 -0.86 -0.299c-0.335 0 -0.641 0.118 -0.88 0.314a286 286 0 0 0 -4.154 4.19 1.39 1.39 0 0 0 0.092 1.773l3.467 3.5L31 46.161h-0.005c-1.186 -1.197 -2.24 -2.288 -3.435 -3.476a1.385 1.385 0 0 0 -1.884 0h-0.011l-3.443 3.478h-0.004l-2.99 -3.017c1.229 -1.24 2.299 -2.29 3.515 -3.542 0.185 -0.235 0.295 -0.532 0.295 -0.853 0 -0.262 -0.072 -0.506 -0.199 -0.716 -1.301 -1.343 -2.89 -2.874 -4.221 -4.187h-0.013a1.386 1.386 0 0 0 -1.88 -0.003l-3.447 3.483h-0.006l-2.986 -3.017c1.195 -1.207 2.29 -2.28 3.474 -3.499v-0.008a1.38 1.38 0 0 0 0.131 -1.716l-3.607 -3.64 2.99 -3.017h0.005c1.198 1.21 2.24 2.337 3.464 3.519a1.385 1.385 0 0 0 1.81 0.014c1.296 -1.298 2.834 -2.828 4.113 -4.142a1.39 1.39 0 0 0 -0.068 -1.806l-3.465 -3.498 2.99 -3.014h0.005c1.186 1.197 2.247 2.283 3.44 3.474h0.009a1.39 1.39 0 0 0 1.855 0.026l3.468 -3.5h0.006l2.987 3.015c-1.246 1.259 -2.39 2.38 -3.622 3.652a1.39 1.39 0 0 0 -0.013 1.542c1.284 1.33 2.918 2.786 4.234 4.086h0.026c0.247 0.23 0.577 0.368 0.942 0.368 0.362 0 0.693 -0.138 0.941 -0.368h0.014l3.43 -3.46h0.005l2.986 3.016c-1.214 1.225 -2.322 2.323 -3.53 3.558a1.39 1.39 0 0 0 -0.04 1.696m13.887 -12.255a7 7 0 0 0 -0.117 -0.753 9 9 0 0 0 -0.243 -0.911 9 9 0 0 0 -0.408 -1.04 8.8 8.8 0 0 0 -1.093 -1.756 9 9 0 0 0 -0.639 -0.708 9 9 0 0 0 -0.636 -0.584 9 9 0 0 0 -0.277 -0.209l-0.048 -0.036a7 7 0 0 0 -0.276 -0.184l-0.418 -0.28 -18.1 -10.548 -0.361 -0.184a10 10 0 0 0 -0.473 -0.235 7 7 0 0 0 -0.747 -0.293l-0.052 -0.016c-0.105 -0.032 -0.2 -0.062 -0.337 -0.1l-0.05 -0.013a9 9 0 0 0 -1.33 -0.258 8.9 8.9 0 0 0 -3.207 0.253 8 8 0 0 0 -0.814 0.265q-0.18 0.068 -0.345 0.145l-0.048 0.025a5 5 0 0 0 -0.277 0.13l-0.484 0.25 -18.181 10.6 -0.352 0.23c-0.122 0.08 -0.245 0.162 -0.338 0.23a7 7 0 0 0 -0.873 0.743 9 9 0 0 0 -1.008 1.178A8.85 8.85 0 0 0 0.092 18.09a7 7 0 0 0 -0.037 0.352l-0.002 0.023q-0.007 0.073 -0.014 0.173l-0.04 0.675 0.01 21.17 0.016 0.32q0.013 0.238 0.033 0.48l0.005 0.04A7 7 0 0 0 0.258 42.4l0.022 0.094a9 9 0 0 0 0.456 1.31q0.311 0.711 0.741 1.356a9 9 0 0 0 1.725 1.904c0.072 0.059 0.16 0.125 0.281 0.212l0.092 0.065c0.054 0.036 0.115 0.08 0.18 0.12l0.452 0.303 18.301 10.65 0.08 0.046q0.224 0.116 0.454 0.23l0.057 0.026c0.097 0.043 0.217 0.098 0.342 0.148 0.178 0.075 0.383 0.146 0.627 0.217 0.166 0.054 0.307 0.093 0.449 0.125 0.147 0.039 0.295 0.068 0.47 0.097l0.462 0.08 0.188 0.024q0.215 0.019 0.431 0.03l0.621 0.027 0.288 -0.018c0.161 -0.007 0.32 -0.016 0.486 -0.026l0.08 -0.007c0.123 -0.013 0.265 -0.027 0.408 -0.05a8 8 0 0 0 0.884 -0.19 8 8 0 0 0 1.198 -0.421l0.777 -0.386 18.232 -10.629 0.229 -0.148c0.15 -0.1 0.3 -0.2 0.456 -0.311 0.188 -0.136 0.375 -0.285 0.563 -0.456 0.12 -0.107 0.235 -0.216 0.326 -0.309q0.224 -0.219 0.37 -0.39a8.6 8.6 0 0 0 1.34 -1.988c0.242 -0.5 0.439 -1.022 0.58 -1.553 0.089 -0.323 0.15 -0.597 0.196 -0.882 0.022 -0.13 0.035 -0.256 0.053 -0.426 0.01 -0.096 0.015 -0.192 0.02 -0.272l0.027 -0.444v0.027l0.012 -0.153V19.546l-0.027 -0.67a14 14 0 0 0 -0.035 -0.522" mask="url(#b)"/>
    </g>
    <path fill="#00AD64" d="M27.494 25.212h-0.007a1.386 1.386 0 0 0 -1.85 -0.03 237 237 0 0 0 -4.119 4.156 1.4 1.4 0 0 0 -0.282 0.84c0 0.317 0.105 0.61 0.284 0.843 1.28 1.316 2.866 2.801 4.17 4.094h0.004a1.385 1.385 0 0 0 1.696 0.146c1.416 -1.354 3.013 -3.003 4.368 -4.416a1.38 1.38 0 0 0 -0.117 -1.562c-1.267  "/>
  </g>
</svg>
