<?xml version="1.0" standalone="no"?>
<!DOCTYPE svg PUBLIC "-//W3C//DTD SVG 20010904//EN"
 "http://www.w3.org/TR/2001/REC-SVG-20010904/DTD/svg10.dtd">
<svg version="1.0" xmlns="http://www.w3.org/2000/svg"
 width="872.000000pt" height="872.000000pt" viewBox="0 0 872.000000 872.000000"
 preserveAspectRatio="xMidYMid meet">
<metadata>
Created by potrace 1.16, written by Peter Selinger 2001-2019
</metadata>
<g transform="translate(0.000000,872.000000) scale(0.100000,-0.100000)"
fill="#000000" stroke="none">
<path d="M4210 7070 c-876 -60 -1676 -550 -2134 -1309 -331 -546 -456 -1213
-347 -1846 168 -976 867 -1792 1801 -2105 320 -107 591 -146 940 -137 389 10
718 86 1060 245 496 229 960 656 1215 1117 21 39 46 84 56 102 40 71 129 285
163 392 317 982 60 2045 -666 2758 -124 122 -173 164 -300 259 -509 379 -1153
568 -1788 524z m480 -121 c225 -26 544 -116 745 -209 549 -253 986 -668 1263
-1200 143 -275 228 -544 274 -865 16 -119 16 -494 -1 -615 -70 -505 -255 -938
-563 -1321 -89 -110 -289 -309 -403 -399 -391 -310 -855 -497 -1365 -551 -142
-15 -489 -6 -624 16 -853 137 -1552 643 -1936 1400 -134 264 -208 502 -262
840 -20 126 -17 544 5 685 63 403 195 749 412 1075 199 301 470 566 776 760
496 315 1100 453 1679 384z"/>
<path d="M4035 6561 c-112 -18 -254 -74 -339 -134 -58 -40 -158 -142 -199
-202 -53 -77 -102 -190 -118 -271 l-12 -63 -36 31 c-19 17 -65 45 -101 62 -60
28 -73 31 -165 30 -84 0 -111 -4 -167 -26 -100 -40 -173 -91 -268 -187 -102
-102 -167 -198 -255 -375 -78 -158 -115 -259 -160 -431 -54 -205 -69 -331 -70
-565 0 -208 9 -302 46 -475 175 -813 794 -1473 1588 -1694 218 -61 393 -84
626 -84 860 3 1633 488 2016 1268 102 208 168 424 206 670 21 136 23 459 4
595 -57 420 -213 790 -468 1113 -35 44 -63 78 -63 75 0 -3 19 -37 42 -74 100
-165 140 -287 158 -484 27 -292 -68 -580 -267 -808 -175 -200 -496 -351 -749
-352 -73 0 -83 2 -104 25 -44 47 -22 116 42 130 16 4 67 1 114 -5 141 -20 217
11 260 104 79 174 41 447 -110 788 -51 116 -93 198 -101 198 -2 0 -1 -33 2
-74 10 -128 -14 -186 -77 -186 -40 0 -88 51 -161 169 l-57 91 2 -149 c1 -137
-1 -151 -20 -178 -36 -48 -92 -43 -121 10 -16 29 -18 68 -18 417 0 368 -1 388
-22 465 -75 268 -286 479 -553 555 -83 24 -244 34 -325 21z m269 -1137 c25
-27 45 -70 242 -517 l114 -258 -6 -67 c-3 -37 -1 -105 4 -152 6 -47 9 -87 7
-88 -9 -9 -138 89 -202 154 -93 94 -150 172 -201 275 -116 237 -152 601 -65
667 29 21 80 15 107 -14z m1057 -1350 c170 -50 299 -200 331 -382 41 -241
-126 -484 -370 -538 -215 -48 -433 61 -531 266 -35 74 -36 77 -36 200 l0 125
39 78 c21 43 43 80 48 83 5 4 32 -19 59 -49 59 -66 101 -94 155 -103 163 -26
282 163 189 300 l-24 36 42 0 c24 0 68 -7 98 -16z"/>
</g>
</svg>
