<svg xmlns="http://www.w3.org/2000/svg" xmlns:xlink="http://www.w3.org/1999/xlink" viewBox="0 0 1000 1000" version="1.1">
<path style=" stroke:none;fill-rule:evenodd;fill:url(#linear0);" d="M 1000.417969 500.207031 C 1000.417969 776.464844 776.464844 1000.417969 500.207031 1000.417969 C 223.949219 1000.417969 0 776.464844 0 500.207031 C 0 223.949219 223.949219 0 500.207031 0 C 776.464844 0 1000.417969 223.949219 1000.417969 500.207031 Z M 1000.417969 500.207031 "/>
<path style=" stroke:none;fill-rule:evenodd;fill:rgb(100%,100%,100%);fill-opacity:1;" d="M 226.15625 494.792969 C 371.929688 431.488281 468.972656 389.421875 517.699219 369.011719 C 656.394531 311.121094 685.546875 301.125 704.289062 300.707031 C 708.453125 300.707031 717.617188 301.542969 723.863281 306.539062 C 728.863281 310.703125 730.113281 316.117188 730.945312 320.285156 C 731.777344 324.449219 732.613281 333.195312 731.777344 339.859375 C 724.28125 418.992188 691.796875 610.996094 675.136719 699.292969 C 668.054688 736.777344 654.3125 749.269531 640.984375 750.519531 C 611.828125 753.019531 589.753906 731.363281 561.847656 713.035156 C 517.699219 684.296875 493.128906 666.390625 450.230469 638.066406 C 400.667969 605.582031 432.738281 587.671875 461.058594 558.515625 C 468.554688 551.019531 596.417969 434.402344 598.917969 423.988281 C 599.332031 422.742188 599.332031 417.742188 596.417969 415.242188 C 593.503906 412.746094 589.335938 413.578125 586.003906 414.410156 C 581.425781 415.242188 511.453125 461.890625 375.261719 553.9375 C 355.269531 567.679688 337.359375 574.34375 321.117188 573.925781 C 303.207031 573.511719 269.054688 563.933594 243.230469 555.601562 C 211.996094 545.605469 187.003906 540.191406 189.085938 522.699219 C 190.335938 513.535156 202.832031 504.375 226.15625 494.792969 Z M 226.15625 494.792969 "/>
</svg>
